<svg xmlns="http://www.w3.org/2000/svg" xmlns:xlink="http://www.w3.org/1999/xlink" width="1em" height="1em" class="icon" p-id="5199" t="1681032344296" version="1.1" viewBox="0 0 1024 1024"><path d="M768 682.666667V170.666667a85.333333 85.333333 0 0 0-85.333333-85.333334H170.666667a85.333333 85.333333 0 0 0-85.333334 85.333334v512a85.333333 85.333333 0 0 0 85.333334 85.333333h512a85.333333 85.333333 0 0 0 85.333333-85.333333zM170.666667 170.666667h512v512H170.666667z m682.666666 85.333333v512a85.333333 85.333333 0 0 1-85.333333 85.333333H256a85.333333 85.333333 0 0 0 85.333333 85.333334h426.666667a170.666667 170.666667 0 0 0 170.666667-170.666667V341.333333a85.333333 85.333333 0 0 0-85.333334-85.333333z" p-id="5200"/></svg>