<svg xmlns="http://www.w3.org/2000/svg" class="icon" version="1.1" viewBox="0 0 1024 1024" style="width:1em;height:1em;vertical-align:middle;fill:currentColor;overflow:hidden"><path d="M362.666667 192m-64 0a64 64 0 1 0 128 0 64 64 0 1 0-128 0ZM661.333333 192m-64 0a64 64 0 1 0 128 0 64 64 0 1 0-128 0ZM362.666667 512m-64 0a64 64 0 1 0 128 0 64 64 0 1 0-128 0ZM661.333333 512m-64 0a64 64 0 1 0 128 0 64 64 0 1 0-128 0ZM362.666667 832m-64 0a64 64 0 1 0 128 0 64 64 0 1 0-128 0ZM661.333333 832m-64 0a64 64 0 1 0 128 0 64 64 0 1 0-128 0Z"/></svg>